<?xml version="1.0" encoding="utf-8"?>
<!-- Svg Vector Icons : http://www.onlinewebfonts.com/icon -->
<!DOCTYPE svg PUBLIC "-//W3C//DTD SVG 1.1//EN" "http://www.w3.org/Graphics/SVG/1.1/DTD/svg11.dtd">
<svg version="1.1" xmlns="http://www.w3.org/2000/svg" xmlns:xlink="http://www.w3.org/1999/xlink" x="0px" y="0px" viewBox="0 0 1000 1000" enable-background="new 0 0 1000 1000" xml:space="preserve">
<metadata> Svg Vector Icons : http://www.onlinewebfonts.com/icon </metadata>
<g><path d="M338.3,54.4"/><path d="M854.4,760H732.8V640c0-18.2-13.6-33-30.4-33c-16.8,0-30.4,14.8-30.4,33v120H550.3c-18.5,0-33.5,13.4-33.5,30c0,16.6,15,30,33.5,30H672v120c0,18.2,13.6,33,30.4,33c16.8,0,30.4-14.8,30.4-33V820h121.7c18.5,0,33.5-13.4,33.5-30C887.9,773.4,872.9,760,854.4,760z M989.4,387.2c-4.3-29.3-26.8-51.1-55.4-55.2l-257-36.8c-1.2-0.9-2.2-1.6-3.4-2.4L560.1,66c-10.5-21-30.7-36.8-54.3-38.8c-27.3-2.3-52.5,11.8-64.4,35.7l-115,229.8c-1.2,0.9-2.2,1.6-3.4,2.4L69.4,331.5c-23.5,3.4-44.9,17.4-54.2,39c-10.7,24.9-4.8,52.9,14.5,71.4l186,178.8c0.5,1.4,0.8,2.6,1.3,4l-43.9,252.5c-3.3,18.8,2,37.9,14.3,52.3c19.5,22.8,53.5,29.6,80.5,15.6l202.3-104.9c14.6-7.6,20.4-25.3,13.1-39.9c-7.6-15.1-26.3-21.1-41.4-13.2L239.7,892.1c-2.2,1.2-4.3,0.4-5.7-1.2c-0.9-1-1.1-2-0.9-3.5L277,634.9c3.7-20.9-3.4-42.2-18.8-57.1L72.2,399c-0.5-0.5-2-1.9-1.1-4.6c0.9-2.6,2.9-2.9,3.6-3l257.1-36.8c21.3-3.1,39.7-16.2,49.2-35.3L496,89.5c0.3-0.7,1.2-2.5,4-2.5c2.8,0,3.7,1.8,4,2.5l115,229.8c9.5,19,27.9,32.2,49.2,35.3l257.1,36.8c0.8,0.1,2.8,0.4,3.7,3c0.9,2.6-0.6,4-1.1,4.6L762.9,557.5c-11.9,11.5-12.1,30.4-0.3,42.1c0.2,0.2,0.4,0.4,0.6,0.6c11.6,11.5,30.4,11.6,42.2,0.3l163.3-157C983.8,428.8,992.4,408,989.4,387.2z"/></g>
</svg>