<?xml version="1.0" encoding="utf-8"?>
<!-- Svg Vector Icons : http://www.onlinewebfonts.com/icon -->
<!DOCTYPE svg PUBLIC "-//W3C//DTD SVG 1.1//EN" "http://www.w3.org/Graphics/SVG/1.1/DTD/svg11.dtd">
<svg version="1.1" xmlns="http://www.w3.org/2000/svg" xmlns:xlink="http://www.w3.org/1999/xlink" x="0px" y="0px" viewBox="0 0 1000 1000" enable-background="new 0 0 1000 1000" xml:space="preserve">
<metadata> Svg Vector Icons : http://www.onlinewebfonts.com/icon </metadata>
<g><g><path d="M987.7,387.3c-15-46.9-97.7-57.7-185.2-69.3c-48-6.2-102.5-13.5-119-25.6c-16.6-12-39.7-61.9-60.1-105.9C586.2,106.4,551,30.9,501.8,30.6h-1c-48.7,0.8-84.3,75.4-122.1,154.6c-20.8,43.8-44.6,93.4-61.1,105.3c-16.7,12-71.3,18.7-119.4,24.5c-87.6,10.6-170.3,20.6-185.8,67.3c-15.4,46.8,45,104.2,109.1,165c35.2,33.4,75,71.2,81.2,90.6c6.2,19.5-4.3,73.5-13.6,121c-17,86.5-33,168.4,6.7,197.6c9.5,6.8,21.4,10.3,35.5,10c40.5-0.7,98.7-32.2,155.1-62.7c42.2-23.1,90-49.1,111.3-49.4c20.6,0.1,68.6,26.8,110.9,50.3c57.5,32,117.2,65.1,157.7,64.5c12.7-0.2,23.4-3.5,32.2-9.8c40-28.7,24.8-110.6,8.7-197.5c-8.9-47.6-18.7-101.7-12.4-121.2c6.4-19.4,46.7-56.8,82.2-89.9C941.6,490.9,1002.6,434.2,987.7,387.3z M663.5,603.5h-327V479.3h327V603.5z"/><g></g><g></g><g></g><g></g><g></g><g></g><g></g><g></g><g></g><g></g><g></g><g></g><g></g><g></g><g></g></g><g></g><g></g><g></g><g></g><g></g><g></g><g></g><g></g><g></g><g></g><g></g><g></g><g></g><g></g><g></g></g>
</svg>